<svg width="738" height="547" xmlns="http://www.w3.org/2000/svg" xmlns:xlink="http://www.w3.org/1999/xlink" xml:space="preserve" overflow="hidden"><g transform="translate(-270 -80)"><path d="M646.715 590.582C641.628 588.129 626.641 572.597 621.192 564.059 609.929 546.62 606.023 533.54 610.928 529.453 612.108 528.544 612.653 528.726 614.652 530.815 616.922 533.267 621.464 535.72 625.279 536.446 645.716 540.534 672.602 539.444 683.138 533.994 685.136 533.086 687.316 531.178 688.134 529.997L689.678 527.636 691.495 530.633C694.129 534.993 693.13 540.806 687.68 551.888 682.23 562.878 674.418 573.505 665.335 582.134 659.431 587.766 652.801 592.217 650.621 592.217 650.257 592.217 648.441 591.49 646.715 590.582Z" fill="#FFFFFF" transform="matrix(1.00141 0 0 -1 -0.546638 708.862)"/><path d="M727.1 538.717C722.65 536.901 706.663 519.098 706.663 516.01 706.663 515.465 706.3 515.01 705.846 515.01 704.665 515.01 698.489 500.568 698.489 497.753 698.489 492.575 699.034 492.212 704.211 494.573 713.476 498.752 740.271 499.842 751.352 496.481 753.714 495.845 755.803 495.482 756.075 495.754 756.439 496.027 756.62 495.845 756.62 495.3 756.62 494.846 757.619 493.938 758.891 493.393 760.98 492.394 761.343 492.575 762.161 494.664 762.615 496.027 762.706 497.934 762.343 499.024 761.979 500.023 761.616 501.386 761.525 501.931 760.435 508.107 749.354 525.274 741.724 532.632 735.093 538.99 731.551 540.443 727.1 538.717Z" fill="#FFFFFF" transform="matrix(1.00141 0 0 -1 -0.546638 708.862)"/><path d="M566.784 531.269C559.063 526.546 543.077 506.109 544.44 502.657 544.712 501.931 544.621 501.477 544.167 501.749 542.895 502.567 539.353 492.848 539.716 489.487 540.08 485.945 541.442 485.218 543.713 487.489 544.53 488.397 545.348 488.942 545.348 488.76 545.439 488.579 548.527 489.124 552.251 490.032 558.972 491.576 577.502 492.121 586.313 491.031 590.491 490.577 597.394 488.215 599.211 486.762 600.936 485.309 603.116 487.398 603.116 490.486 603.116 500.568 585.041 526.183 573.96 531.723 570.326 533.54 570.599 533.54 566.784 531.269ZM578.592 526.818C578.592 526.364 578.41 525.91 578.229 525.91 577.956 525.91 577.502 526.364 577.229 526.818 576.957 527.363 577.139 527.727 577.593 527.727 578.138 527.727 578.592 527.363 578.592 526.818Z" fill="#FFFFFF" transform="matrix(1.00141 0 0 -1 -0.546638 708.862)"/><path d="M632.455 531.814C628.821 531.178 624.189 529.634 622.009 528.453L618.103 526.364 617.831 499.388 617.649 472.411 620.556 473.319C624.189 474.409 625.37 474.591 638.813 475.953 650.893 477.225 669.786 476.044 680.595 473.319L683.956 472.502 683.956 498.57C683.956 528.09 684.046 527.545 676.871 529.907 666.516 533.267 645.534 534.176 632.455 531.814ZM656.161 516.01C659.34 513.285 660.158 510.196 660.249 500.296L660.43 490.486 651.802 490.486C646.987 490.486 642.809 490.577 642.537 490.759 642.173 490.849 641.992 495.573 641.992 501.204 642.083 512.013 642.809 514.193 646.897 516.555 649.531 518.008 653.981 517.735 656.161 516.01Z" fill="#FFFFFF" transform="matrix(1.00141 0 0 -1 -0.546638 708.862)"/><path d="M715.746 491.758C714.475 491.485 711.568 490.668 709.207 489.85L704.847 488.306 704.847 476.589C704.847 465.144 704.938 464.781 707.117 463.055 708.389 462.056 710.478 459.331 711.659 456.879 713.839 452.61 713.839 452.428 713.839 422.726 713.93 406.286 713.566 391.39 713.112 389.664 712.567 387.938 711.931 385.577 711.659 384.487 711.023 382.397 711.023 382.397 721.469 382.397 739.635 382.397 749.354 386.212 753.986 395.295 755.621 398.475 755.712 401.199 755.712 443.436L755.712 488.306 751.443 489.941C747.991 491.304 744.086 491.667 732.55 491.939 724.557 492.03 717.018 491.939 715.746 491.758ZM738.636 473.501C741.179 471.23 742.269 466.507 742.269 457.515L742.269 449.158 732.641 448.886 723.013 448.613 723.285 458.423C723.558 469.413 725.193 473.773 729.371 474.682 730.643 474.954 732.096 475.317 732.55 475.499 734.003 475.953 736.91 474.954 738.636 473.501Z" fill="#FFFFFF" transform="matrix(1.00141 0 0 -1 -0.546638 708.862)"/><path d="M558.155 485.036C555.703 484.673 551.979 483.674 549.98 482.947L546.347 481.676 546.075 439.984C545.893 395.568 545.893 395.205 550.344 390.3 552.523 387.938 559.517 383.578 559.517 384.577 559.517 384.85 561.243 384.396 563.423 383.669 565.785 382.761 570.69 382.125 576.321 382.125 584.042 381.943 585.858 382.216 588.129 383.76 591.49 386.031 592.217 386.757 594.487 390.118 596.213 392.752 596.304 394.66 596.576 435.533 596.758 459.059 596.667 479.041 596.395 480.041 595.577 483.31 587.857 485.218 574.505 485.581 568.056 485.672 560.698 485.49 558.155 485.036ZM574.505 466.416C578.683 464.327 579.5 461.784 579.5 450.248L579.5 440.075 570.599 440.166 561.788 440.257 561.788 451.247C561.788 460.875 561.97 462.419 563.605 464.145 566.966 467.869 570.054 468.505 574.505 466.416Z" fill="#FFFFFF" transform="matrix(1.00141 0 0 -1 -0.546638 708.862)"/><path d="M631.274 469.141C627.55 468.505 623.644 467.778 622.645 467.506 621.646 467.233 618.83 466.598 616.287 465.962 611.109 464.872 603.934 461.693 602.935 460.149 602.571 459.604 602.208 444.072 602.208 425.542L602.208 391.935 599.937 387.121 597.666 382.307 601.663 380.49C605.75 378.764 624.734 374.495 628.276 374.586 630.184 374.586 630.184 374.859 630.547 393.297 630.82 411.191 630.91 412.19 633.181 416.459 636.451 422.999 641.538 426.269 649.167 426.905 657.978 427.631 663.428 424.997 668.424 417.367 670.785 413.825 670.785 413.462 671.058 394.66 671.239 384.214 671.693 375.222 672.057 374.859 672.965 373.95 688.134 376.584 694.674 378.855 701.123 381.035 704.574 383.669 706.3 387.666 707.572 390.481 707.844 395.205 707.753 418.73 707.753 433.989 707.572 447.705 707.299 449.158 707.027 450.702 706.754 452.246 706.754 452.61 706.663 453.064 706.209 453.064 705.573 452.701 704.938 452.337 704.847 452.428 705.21 453.064 706.482 455.062 702.667 458.786 696.309 461.784 690.314 464.599 684.41 466.507 682.866 466.143 682.502 466.053 680.413 466.507 678.324 467.233 668.333 470.594 645.08 471.502 631.274 469.141ZM661.702 426.905C661.975 426.36 661.611 426.269 660.885 426.541 659.25 427.177 658.977 427.813 660.249 427.813 660.794 427.813 661.43 427.45 661.702 426.905Z" fill="#FFFFFF" transform="matrix(1.00141 0 0 -1 -0.546638 708.862)"/><path d="M509.379 459.24C505.201 457.696 496.663 451.52 497.298 450.43 497.662 449.976 497.298 449.885 496.572 450.157 493.938 451.156 482.311 434.444 474.772 418.73 469.323 407.376 464.145 394.932 462.419 389.21 461.784 387.212 460.239 383.306 458.968 380.581 457.696 377.856 455.698 372.769 454.608 369.227 453.427 365.775 450.43 357.328 447.977 350.607 445.434 343.885 442.073 334.802 440.438 330.442 438.713 325.628 437.078 322.449 436.26 322.449 435.624 322.449 430.447 324.72 424.815 327.445 404.833 337.164 395.114 350.425 395.114 368.319 395.114 380.399 403.743 394.478 412.826 397.112 421.455 399.655 429.902 397.385 433.808 391.481 435.897 388.392 436.169 387.121 435.897 382.216 435.533 376.948 435.715 376.493 437.532 376.221 440.802 375.767 442.618 379.582 442.164 385.849 440.711 404.469 418.548 412.19 401.109 400.109 393.297 394.75 390.027 390.391 386.394 380.944 380.853 366.139 383.397 350.425 393.842 335.62 397.475 330.533 400.927 327.172 408.103 321.904 411.1 319.633 429.085 310.641 430.538 310.641 432.627 310.641 432.264 308.28 429.266 302.103 427.45 298.379 425.996 295.109 425.996 294.746 425.996 293.474 416.005 273.31 412.462 267.497 410.373 264.136 408.738 261.048 408.738 260.684 408.738 260.23 408.375 259.776 408.012 259.594 407.558 259.503 405.923 257.324 404.197 254.78 399.383 247.695 392.48 241.337 386.122 238.158 381.398 235.797 379.218 235.252 374.404 235.252 366.593 235.252 362.596 236.614 358.146 240.611 352.514 245.606 351.243 248.967 351.152 257.959 351.061 262.228 351.606 267.224 352.242 269.132 354.058 274.127 359.962 281.121 364.776 283.937 370.135 287.116 379.673 288.024 384.032 285.754 388.301 283.574 391.935 283.846 394.115 286.662 396.567 289.75 396.476 291.203 394.024 294.837 390.027 300.65 380.581 302.83 370.59 300.286 355.421 296.381 343.522 284.209 339.616 268.587 337.981 261.774 338.98 250.057 341.887 244.062 345.066 237.159 351.243 231.164 358.6 227.713 363.686 225.26 365.957 224.806 372.679 224.534 387.03 223.898 396.476 227.894 410.283 240.247 419.911 248.785 431.083 267.042 441.71 291.567 443.981 296.835 446.161 302.285 446.433 303.647 447.16 306.554 446.433 306.463 455.516 304.646 463.328 303.011 486.308 302.376 493.029 303.647 496.572 304.283 496.844 304.192 496.844 302.285 496.844 298.107 500.75 279.94 503.747 269.767 512.104 242.155 524.638 222.263 537.718 215.905 546.529 211.636 555.067 210.909 564.059 213.634 572.597 216.359 577.32 222.717 573.505 226.532 571.689 228.439 571.235 228.349 567.329 225.714 565.512 224.443 562.787 223.444 561.243 223.444 554.703 223.444 545.257 231.164 540.716 240.247 537.809 245.879 532.722 258.868 531.36 263.682 530.724 266.043 529.907 267.951 529.634 267.951 529.271 267.951 528.998 268.677 528.908 269.586 528.817 271.039 522.822 302.285 521.823 306.735 521.459 308.37 522.186 309.006 526.546 311.095 531.542 313.366 538.899 318.634 540.988 321.541 541.624 322.268 542.895 323.902 543.985 325.083 546.529 327.99 547.891 333.531 547.164 337.436 545.893 344.249 537.264 351.878 533.177 349.698 530.633 348.336 530.906 347.246 534.993 342.795 536.991 340.615 538.626 337.981 538.626 336.891 538.626 332.531 528.908 322.994 522.549 321.178 520.097 320.451 520.006 320.996 518.553 339.253 517.372 354.422 517.917 397.748 519.552 412.826 520.097 417.822 521.732 428.812 523.276 437.35 525.547 450.066 525.819 453.155 524.911 455.244 522.913 460.058 516.464 461.784 509.379 459.24ZM494.937 417.549C491.122 399.02 490.123 385.94 490.849 361.961 491.304 342.795 491.939 333.803 493.665 320.905L494.301 316.273 489.941 315.546C482.675 314.456 460.239 316.182 453.427 318.362 452.61 318.634 452.791 319.997 454.245 323.539 456.697 329.625 462.147 344.975 467.233 360.144 471.866 373.769 477.043 388.029 482.13 401.199 486.217 411.554 495.936 430.629 496.844 430.084 497.208 429.811 496.39 424.18 494.937 417.549Z" fill="#FFFFFF" transform="matrix(1.00141 0 0 -1 -0.546638 708.862)"/><path d="M749.354 358.781C743.813 357.782 740.906 356.602 735.911 353.15 730.552 349.608 724.648 343.249 721.923 338.072 720.742 335.892 718.925 332.441 717.836 330.351L715.837 326.537 715.837 339.071C715.746 352.878 714.747 356.329 710.66 357.873 705.392 359.871 698.398 358.055 693.765 353.422 690.586 350.153 690.495 349.88 691.313 346.428 692.857 340.161 693.311 320.542 692.221 307.916 691.131 294.746 688.77 285.935 682.684 271.766 679.323 263.863 676.689 259.776 671.33 254.144 668.514 251.056 667.697 250.693 663.791 250.693 659.885 250.693 659.25 250.965 657.706 253.509 651.802 263.137 652.437 292.384 659.159 331.532 660.521 339.253 661.611 347.064 661.611 348.79 661.611 354.058 656.616 357.873 649.712 357.873 646.261 357.873 639.449 355.057 637.723 352.968 637.178 352.333 636.088 348.336 635.27 344.158 633.363 333.712 626.369 305.827 622.917 294.746 621.373 289.75 618.012 281.303 615.288 275.944 608.021 261.411 603.48 257.051 595.759 257.051 590.127 257.051 586.403 261.048 585.041 268.95 582.952 281.394 584.133 295.018 590.4 326.991 592.398 337.164 594.033 346.883 594.033 348.427 594.033 352.423 589.855 356.602 585.041 357.419 575.504 359.054 569.236 355.057 568.146 346.701 567.874 344.067 566.784 337.527 565.785 331.986 559.336 294.655 558.427 286.299 559.517 275.308 561.152 259.503 566.875 248.967 576.049 244.789 590.672 238.158 606.204 242.972 615.833 257.051 620.011 263.228 624.189 271.493 626.187 277.67 628.367 284.3 629.457 284.482 629.457 278.215 629.548 265.407 634.271 250.693 640.084 244.88 653.891 231.073 673.328 236.251 685.046 256.869 686.59 259.503 687.952 261.502 688.134 261.32 688.315 261.138 688.134 257.505 687.771 253.145 687.135 246.242 687.316 244.88 688.77 242.609 692.04 237.341 705.664 237.068 710.115 242.064 711.75 244.062 712.113 245.516 712.113 250.965 712.113 261.774 716.473 294.837 719.016 303.829 720.288 308.37 721.923 314.093 722.559 316.545 724.829 324.992 731.551 336.437 737.273 341.614 741.451 345.429 747.81 346.883 752.079 345.157 755.894 343.613 757.983 337.981 757.892 329.716 757.801 321.359 757.619 320.723 753.986 313.366 749.081 303.466 740.997 296.472 731.642 294.201 726.555 292.929 723.013 290.931 723.013 289.387 723.013 288.842 723.921 287.389 724.92 286.117 725.919 284.845 728.281 281.485 730.279 278.669 732.187 275.762 734.276 272.946 734.821 272.311 735.366 271.675 737.637 268.314 739.817 264.953 758.528 236.16 769.7 224.534 786.231 216.631 801.672 209.365 817.659 209.002 832.191 215.632 841.638 219.992 849.358 229.348 846.815 233.344 845.18 235.887 843.091 235.524 840.185 232.163 828.195 218.63 804.76 222.172 785.414 240.611 779.055 246.606 769.518 257.869 763.796 266.043 758.164 274.218 757.619 274.945 752.805 281.485 750.353 284.664 748.445 287.661 748.445 288.115 748.445 288.569 749.535 289.296 750.989 289.841 758.891 292.838 768.428 300.559 774.423 308.643 778.329 314.002 779.51 316.545 780.781 322.177 782.507 330.17 782.144 339.707 779.782 344.43 777.875 348.063 772.152 354.24 770.517 354.24 769.882 354.24 769.337 354.603 769.337 355.057 769.337 357.601 756.257 360.053 749.354 358.781Z" fill="#FFFFFF" transform="matrix(1.00141 0 0 -1 -0.546638 708.862)"/><path d="M843.818 356.874C842.092 356.329 837.278 354.331 833.1 352.333 827.105 349.426 824.017 347.155 818.113 341.16 809.847 332.804 806.214 327.354 801.581 316 796.858 304.465 795.587 298.561 795.042 286.117 794.497 273.855 795.677 266.588 799.401 259.14 809.211 239.884 832.827 235.887 848.45 250.875 853.446 255.689 858.986 264.227 862.438 272.492 863.801 275.762 865.345 279.577 865.98 281.03 867.07 283.574 867.252 282.938 868.16 273.31 869.795 257.596 873.338 248.876 880.604 242.881 887.417 237.341 895.319 235.887 903.403 238.612 917.754 243.426 928.29 260.139 937.737 292.838 940.643 302.739 940.825 307.099 938.282 308.643 936.193 309.915 933.104 308.552 932.378 306.1 932.196 305.373 930.47 299.651 928.654 293.383 920.933 266.952 910.76 250.693 902.04 250.693 897.499 250.693 895.773 252.691 893.593 260.412 889.778 274.036 890.414 289.296 896.136 323.812 901.041 352.605 900.95 351.243 897.408 354.331 892.14 358.963 882.421 358.963 877.243 354.331L874.519 351.878 868.615 354.876C863.165 357.601 861.984 357.873 854.808 357.782 850.539 357.782 845.544 357.328 843.818 356.874ZM866.707 343.613C868.07 342.977 869.886 341.342 870.704 340.161 872.339 337.709 872.429 338.708 868.796 321.995 867.07 314.093 860.985 294.655 856.807 283.664 851.811 270.494 845.725 261.32 840.003 258.323 836.642 256.597 831.465 256.688 828.286 258.595 817.659 264.862 818.203 299.106 829.376 322.449 835.37 334.984 843.818 343.431 852.083 345.066 856.807 346.065 863.256 345.429 866.707 343.613Z" fill="#FFFFFF" transform="matrix(1.00141 0 0 -1 -0.546638 708.862)"/><path d="M740.271 196.649C737.092 193.288 738.999 192.652 742.36 196.013 744.358 198.011 744.812 198.919 743.813 198.919 742.996 198.919 741.451 197.92 740.271 196.649Z" fill="#FFFFFF" transform="matrix(1.00141 0 0 -1 -0.546638 708.862)"/><path d="M484.31 190.109C476.407 186.294 479.405 178.755 489.578 176.666 493.938 175.758 496.844 173.759 496.844 171.67 496.844 167.583 489.124 165.766 482.765 168.4 480.222 169.49 479.586 169.49 479.586 168.582 479.586 165.948 488.851 163.677 493.574 165.312 496.844 166.402 499.569 169.581 499.569 172.397 499.569 175.031 496.844 176.938 489.941 179.209 484.037 181.117 483.674 181.389 483.401 184.114 483.22 186.294 483.583 187.202 485.127 188.02 487.125 189.11 493.029 188.837 496.208 187.566 497.298 187.111 497.753 187.384 497.753 188.292 497.753 189.2 496.39 190.109 494.392 190.654 489.759 192.016 487.852 191.835 484.31 190.109Z" fill="#FFFFFF" transform="matrix(1.00141 0 0 -1 -0.546638 708.862)"/><path d="M513.92 190.381C507.381 187.475 504.383 181.48 506.018 174.758 508.289 165.857 517.554 161.951 526.001 166.22 530.633 168.673 533.177 172.76 533.177 178.028 533.177 183.296 530.633 187.384 526.001 189.836 521.914 191.835 517.644 192.107 513.92 190.381ZM527.545 185.84C529.634 183.751 529.997 182.661 529.997 178.028 529.997 173.305 529.634 172.306 527.454 170.126 525.274 167.946 524.275 167.583 519.461 167.583 514.375 167.583 513.739 167.855 511.286 170.58 506.563 175.848 508.289 185.386 514.465 188.111 518.099 189.655 524.911 188.474 527.545 185.84Z" fill="#FFFFFF" transform="matrix(1.00141 0 0 -1 -0.546638 708.862)"/><path d="M657.07 190.745C654.345 189.836 652.165 186.748 652.165 183.569 652.165 181.026 655.526 178.21 659.704 177.12 667.243 175.303 669.968 172.578 667.697 169.036 666.516 167.129 659.431 166.765 655.526 168.309 652.71 169.581 652.165 169.581 652.165 168.491 652.165 165.675 660.34 163.677 665.244 165.312 669.604 166.674 671.239 168.491 671.239 171.761 671.239 175.394 668.696 177.574 662.974 178.937 657.524 180.208 654.89 182.025 654.89 184.477 654.89 188.383 660.612 190.2 666.334 188.02 669.059 186.93 671.148 188.02 669.241 189.564 667.515 191.017 660.34 191.653 657.07 190.745Z" fill="#FFFFFF" transform="matrix(1.00141 0 0 -1 -0.546638 708.862)"/><path d="M738.817 190.926C738 190.472 731.006 176.03 726.919 166.493 726.646 165.857 727.1 165.312 727.827 165.312 728.554 165.312 729.825 166.765 730.643 168.491L732.187 171.67 739.726 171.67 747.174 171.67 748.718 168.491C749.535 166.765 750.807 165.312 751.625 165.312 753.35 165.312 753.441 164.949 749.99 172.215 748.264 175.667 745.539 181.48 743.904 185.113 740.725 191.835 740.543 192.107 738.817 190.926ZM745.721 174.758C745.721 174.577 743.086 174.395 739.817 174.395 736.547 174.395 733.913 174.668 733.913 175.031 733.913 175.303 735.184 178.482 736.819 181.934L739.726 188.201 742.723 181.662C744.358 178.028 745.721 174.94 745.721 174.758Z" fill="#FFFFFF" transform="matrix(1.00141 0 0 -1 -0.546638 708.862)"/><path d="M766.157 190.563C760.526 188.565 757.529 184.114 757.529 177.756 757.529 173.033 760.344 168.219 764.341 166.311 767.883 164.585 774.423 164.495 778.238 166.129 781.054 167.31 781.145 167.492 781.145 172.669 781.145 176.847 780.872 178.028 779.782 178.028 778.783 178.028 778.42 176.938 778.42 173.487 778.42 169.399 778.147 168.764 776.058 168.037 766.067 164.222 757.347 172.942 761.162 182.933 763.069 188.02 771.426 190.472 776.966 187.566 779.146 186.385 779.782 186.385 780.327 187.293 782.053 190.018 771.244 192.47 766.157 190.563Z" fill="#FFFFFF" transform="matrix(1.00141 0 0 -1 -0.546638 708.862)"/><path d="M809.575 189.927C804.76 187.656 802.036 183.478 802.036 178.119 802.036 168.491 811.755 162.133 820.928 165.766 823.018 166.674 824.743 167.855 824.743 168.582 824.743 170.126 824.017 170.126 821.11 168.491 813.844 164.313 804.76 169.763 804.76 178.21 804.76 186.476 813.934 191.653 821.11 187.566 823.926 185.931 824.743 185.931 824.743 187.384 824.743 190.926 815.206 192.561 809.575 189.927Z" fill="#FFFFFF" transform="matrix(1.00141 0 0 -1 -0.546638 708.862)"/><path d="M839.73 190.563C834.19 188.565 831.101 184.114 831.101 177.847 831.101 172.397 833.826 168.309 838.913 166.039 848.723 161.77 858.351 167.764 858.351 178.21 858.351 183.478 855.626 187.656 850.812 189.836 846.543 191.835 843.818 192.016 839.73 190.563ZM850.176 187.566C857.079 183.932 857.533 173.033 850.903 168.945 840.548 162.678 829.376 173.85 835.643 184.205 838.55 188.837 844.817 190.29 850.176 187.566Z" fill="#FFFFFF" transform="matrix(1.00141 0 0 -1 -0.546638 708.862)"/><path d="M869.432 190.29C865.98 188.746 864.164 185.022 865.526 181.934 866.616 179.572 870.25 177.574 874.7 176.666 879.423 175.758 882.33 173.305 881.513 170.853 880.423 167.219 873.701 166.039 867.888 168.4 865.345 169.49 864.709 169.49 864.709 168.582 864.709 165.948 873.974 163.677 878.697 165.312 881.967 166.402 884.692 169.581 884.692 172.397 884.692 175.031 881.967 176.938 875.064 179.209 869.16 181.117 868.796 181.389 868.524 184.114 868.342 186.294 868.705 187.202 870.25 188.02 872.248 189.11 878.152 188.837 881.331 187.566 882.421 187.111 882.875 187.384 882.875 188.292 882.875 189.2 881.513 190.109 879.514 190.654 874.973 191.925 873.065 191.835 869.432 190.29Z" fill="#FFFFFF" transform="matrix(1.00141 0 0 -1 -0.546638 708.862)"/><path d="M396.022 178.028C396.022 167.31 396.204 165.312 397.385 165.312 398.293 165.312 398.747 166.22 398.747 167.946 398.747 172.851 399.474 173.487 404.833 173.487 410.283 173.487 412.917 174.486 415.278 177.483 418.276 181.117 416.822 187.838 412.644 189.745 411.463 190.29 407.194 190.745 403.289 190.745L396.022 190.745 396.022 178.028ZM410.373 187.929C414.461 186.566 415.551 181.207 412.372 178.028 411.009 176.666 409.374 176.212 405.196 176.212L399.928 176.212 399.383 179.391C399.11 181.117 399.11 184.023 399.383 185.749 399.837 188.837 400.019 188.928 403.743 188.928 405.832 188.928 408.829 188.474 410.373 187.929Z" fill="#FFFFFF" transform="matrix(1.00141 0 0 -1 -0.546638 708.862)"/><path d="M425.088 178.028 425.088 165.312 434.171 165.312C439.621 165.312 443.254 165.675 443.254 166.22 443.254 166.765 440.075 167.129 435.533 167.129L427.813 167.129 427.813 172.124 427.813 177.12 434.625 177.12C438.44 177.12 441.438 177.483 441.438 178.028 441.438 179.3 437.532 180.027 432.354 179.663L427.813 179.391 427.813 184.205 427.813 188.928 435.533 188.928C440.075 188.928 443.254 189.291 443.254 189.836 443.254 190.381 439.621 190.745 434.171 190.745L425.088 190.745 425.088 178.028Z" fill="#FFFFFF" transform="matrix(1.00141 0 0 -1 -0.546638 708.862)"/><path d="M452.337 178.028C452.337 167.31 452.519 165.312 453.7 165.312 454.699 165.312 455.062 166.402 455.062 169.399L455.062 173.487 459.876 173.487C464.418 173.487 464.69 173.305 467.324 169.399 468.868 167.038 470.776 165.312 471.684 165.312 473.137 165.312 472.956 165.948 470.322 169.49L467.233 173.668 470.231 176.666C474.137 180.572 474.318 184.386 470.594 188.111 468.051 190.654 467.506 190.745 460.149 190.745L452.337 190.745 452.337 178.028ZM467.869 187.202C469.413 185.931 469.958 184.659 469.868 182.116 469.777 180.299 469.323 178.301 468.778 177.756 468.142 177.12 464.872 176.484 461.42 176.212L455.062 175.758 455.062 182.297 455.062 188.928 460.421 188.928C464.327 188.928 466.325 188.474 467.869 187.202Z" fill="#FFFFFF" transform="matrix(1.00141 0 0 -1 -0.546638 708.862)"/><path d="M541.351 178.028C541.351 167.31 541.533 165.312 542.714 165.312 543.804 165.312 544.076 167.038 544.076 175.576L544.167 185.749 546.165 183.387C547.255 182.116 550.525 178.21 553.341 174.668 559.427 167.129 561.152 165.312 562.333 165.312 562.787 165.312 563.151 170.853 563.151 178.028 563.151 188.928 562.969 190.745 561.697 190.745 560.517 190.745 560.335 189.291 560.517 181.207 560.607 175.939 560.335 171.761 559.881 171.852 559.427 171.943 555.612 176.212 551.524 181.389 547.346 186.476 543.35 190.745 542.623 190.745 541.624 190.745 541.351 188.383 541.351 178.028Z" fill="#FFFFFF" transform="matrix(1.00141 0 0 -1 -0.546638 708.862)"/><path d="M579.5 185.567C578.319 182.661 575.867 177.12 573.869 173.305 569.963 165.312 569.963 165.312 571.87 165.312 572.597 165.312 573.869 166.765 574.595 168.491L575.867 171.67 583.588 171.67 591.308 171.67 592.852 168.491C593.67 166.765 594.941 165.312 595.668 165.312 597.212 165.312 596.758 166.856 591.853 176.847 589.764 181.298 587.493 186.203 586.858 187.838 585.949 189.836 585.041 190.745 583.678 190.745 582.044 190.745 581.226 189.655 579.5 185.567ZM586.222 183.115C590.309 173.941 590.491 174.395 583.588 174.395 580.227 174.395 577.684 174.758 577.865 175.122 580.318 181.026 583.497 188.02 583.769 188.02 583.951 188.02 585.041 185.84 586.222 183.115Z" fill="#FFFFFF" transform="matrix(1.00141 0 0 -1 -0.546638 708.862)"/><path d="M603.116 189.836C603.116 189.382 605.387 188.928 608.112 188.928L613.108 188.928 613.108 179.118C613.108 172.669 612.744 168.945 612.018 168.219 610.474 166.674 606.204 166.856 603.48 168.582 600.755 170.489 599.574 169.581 601.663 167.219 605.024 163.586 613.653 164.404 615.288 168.491 615.56 169.309 615.833 174.668 615.833 180.39L615.833 190.745 609.474 190.745C605.841 190.745 603.116 190.381 603.116 189.836Z" fill="#FFFFFF" transform="matrix(1.00141 0 0 -1 -0.546638 708.862)"/><path d="M625.824 178.028 625.824 165.312 635.361 165.312C641.083 165.312 644.898 165.675 644.898 166.22 644.898 166.765 641.538 167.129 636.724 167.129L628.549 167.129 628.549 172.124 628.549 177.12 635.452 177.12C640.539 177.12 642.264 177.392 641.901 178.301 641.719 179.027 639.449 179.391 635.089 179.391L628.549 179.391 628.549 184.205 628.549 188.928 636.269 188.928C640.811 188.928 643.99 189.291 643.99 189.836 643.99 190.381 640.357 190.745 634.907 190.745L625.824 190.745 625.824 178.028Z" fill="#FFFFFF" transform="matrix(1.00141 0 0 -1 -0.546638 708.862)"/><path d="M691.949 189.836C691.858 189.382 691.767 183.66 691.949 177.12 692.221 167.583 692.494 165.312 693.584 165.312 694.583 165.312 694.855 167.219 694.855 175.485L694.855 185.567 700.033 177.029C702.848 172.306 705.301 168.309 705.482 168.037 705.937 167.492 706.118 167.855 712.113 178.028L716.655 185.749 716.655 175.576C716.655 167.038 716.927 165.312 718.017 165.312 719.198 165.312 719.38 167.31 719.38 178.119 719.38 187.838 719.107 190.835 718.29 190.563 717.2 190.2 713.203 184.296 711.296 180.299 710.841 179.3 709.388 176.938 708.207 174.94L706.027 171.398 700.214 181.026C694.855 189.927 692.766 192.198 691.949 189.836Z" fill="#FFFFFF" transform="matrix(1.00141 0 0 -1 -0.546638 708.862)"/><path d="M790.228 178.028C790.228 167.764 790.5 165.312 791.499 165.312 793.497 165.312 793.861 167.401 793.861 178.028 793.861 188.655 793.497 190.745 791.499 190.745 790.5 190.745 790.228 188.292 790.228 178.028Z" fill="#FFFFFF" transform="matrix(1.00141 0 0 -1 -0.546638 708.862)"/></g></svg>