<svg width="684" height="291" xmlns="http://www.w3.org/2000/svg" xmlns:xlink="http://www.w3.org/1999/xlink" xml:space="preserve" overflow="hidden"><g transform="translate(-298 -180)"><path d="M462.851 417.396C456.374 415.123 447.851 407.282 441.601 397.963 434.555 387.281 424.896 366.485 419.782 351.144 418.873 348.303 417.623 345.121 417.055 344.099 416.373 342.962 414.896 338.871 413.532 335.007 412.282 331.03 410.918 327.053 410.577 326.144 407.168 316.825 401.714 301.939 400.35 298.075 399.327 295.347 398.077 293.188 397.282 293.188 394.554 293.302 378.645 301.939 373.531 306.257 370.463 308.757 366.372 313.416 364.44 316.484 360.917 321.939 360.803 322.621 360.803 334.212 360.803 345.349 361.031 346.485 363.872 350.803 368.985 358.644 374.213 361.826 381.713 361.94 388.645 361.94 395.577 359.44 394.668 357.281 394.441 356.485 394.668 355.576 395.35 355.122 396.032 354.781 396.6 351.94 396.6 348.871 396.6 342.962 398.191 340.803 400.577 343.303 405.236 348.417 401.486 361.144 393.872 365.804 391.6 367.281 388.986 368.076 388.077 367.735 387.168 367.395 386.372 367.735 386.372 368.417 386.372 370.349 373.758 368.758 368.531 366.031 352.053 357.735 345.349 336.712 352.621 316.939 357.735 303.189 367.622 293.529 384.781 285.688 389.44 283.643 393.191 281.37 393.191 280.802 393.191 279.779 389.554 271.37 382.168 255.688 377.849 246.483 367.963 231.142 362.849 225.46 353.303 215.118 340.917 211.141 331.371 215.346 329.78 216.028 329.439 215.914 330.007 215.005 330.576 214.096 330.235 213.868 329.098 214.323 328.075 214.664 327.507 215.346 327.848 215.914 328.075 216.368 327.053 217.959 325.348 219.437 321.257 223.3 319.325 228.414 319.325 236.028 319.325 252.96 336.257 265.688 350.462 259.779 354.44 258.074 355.122 258.074 357.622 259.665 362.167 262.733 360.803 267.733 354.099 272.052 351.599 273.642 349.212 273.983 343.303 273.642 324.212 272.62 308.984 256.71 308.871 237.619 308.757 225.914 310.575 221.028 317.962 213.641 323.53 208.186 325.462 206.936 332.28 205.232 338.871 203.414 341.144 203.3 346.599 204.323 361.372 207.05 374.781 217.164 385.804 234.096 391.372 242.733 405.009 270.12 406.373 275.688 407.055 278.302 407.509 278.529 410.691 277.847 417.737 276.37 434.896 275.347 442.964 276.029 447.624 276.483 451.601 276.37 451.942 275.802 452.169 275.347 452.965 271.483 453.533 267.392 455.578 252.96 465.124 224.55 470.465 217.164 471.715 215.346 472.738 213.3 472.738 212.618 472.738 211.937 475.92 208.186 479.897 204.095 485.806 197.959 488.079 196.482 493.761 194.891 505.466 191.482 519.671 194.323 522.625 200.8 524.898 205.686 519.33 209.323 515.921 205.118 514.898 203.868 512.739 203.414 508.989 203.527 506.034 203.755 503.761 204.209 504.102 204.664 504.329 205.118 503.534 205.8 502.398 206.255 499.557 207.164 493.306 215.687 489.556 223.869 484.784 234.323 479.783 250.915 477.397 265.233 474.442 281.938 474.442 281.484 477.624 282.279 481.943 283.302 489.784 289.211 493.875 294.325 497.057 298.416 497.738 300.12 497.738 304.893 497.738 310.007 497.284 311.03 493.193 314.893 490.011 317.848 488.079 318.984 486.374 318.53 482.624 317.507 482.624 316.143 486.147 312.734 487.965 311.03 489.784 308.757 490.238 307.62 491.147 304.893 487.397 299.666 481.488 295.347 473.192 289.325 473.306 289.325 471.715 313.643 470.01 338.644 471.374 369.554 475.124 392.622 479.102 416.259 478.988 414.1 475.579 416.827 471.942 419.668 469.556 419.782 462.851 417.396ZM450.465 378.418C446.714 361.031 445.692 329.098 448.078 306.257 448.987 297.507 449.896 289.552 450.124 288.643 450.465 287.279 449.101 286.938 442.055 286.938 432.396 286.938 415.805 288.302 413.191 289.325 411.6 289.893 411.6 290.347 413.191 294.097 414.214 296.484 417.85 306.484 421.259 316.484 431.146 345.349 441.601 372.622 446.146 381.258 450.237 389.1 452.396 392.395 452.851 391.827 453.078 391.6 451.942 385.577 450.465 378.418Z" fill="#86709E" transform="matrix(1 0 0 -1.0004 50.685 625.686)"/><path d="M680.811 326.144C670.583 323.984 660.356 315.234 655.355 304.325 654.105 301.257 652.628 298.87 652.06 298.87 651.605 298.87 651.151 303.984 651.151 310.234 651.151 320.121 650.81 321.939 648.878 323.871 646.037 326.712 640.242 326.825 634.787 324.325 629.673 321.825 628.423 318.871 629.559 311.825 630.81 304.78 631.719 272.279 630.582 276.143 629.9 278.415 629.787 278.074 629.673 274.097 629.446 263.529 619.786 240.801 612.173 232.505 607.968 228.073 606.604 227.278 603.536 227.505 600.809 227.732 599.332 228.641 598.309 230.801 595.468 236.142 593.99 248.642 594.786 260.119 595.581 271.256 598.309 295.347 599.332 299.438 599.559 300.689 600.468 305.689 601.263 310.575 602.627 319.212 602.513 319.439 600.013 322.166 597.854 324.553 596.263 325.007 591.377 325.007 582.513 325.007 579.786 322.28 577.854 311.371 572.513 280.574 562.399 251.142 553.535 239.892 546.944 231.596 537.966 231.482 533.875 239.778 531.603 244.324 531.035 265.006 532.853 274.665 542.171 321.371 542.171 321.371 534.898 324.439 530.694 326.144 522.398 325.121 519.671 322.394 518.762 321.484 517.512 317.734 517.057 314.098 516.602 310.348 514.557 297.961 512.625 286.37 508.989 264.665 508.307 251.369 510.239 244.096 510.92 241.71 511.489 239.551 511.375 239.21 511.261 238.187 515.125 231.369 517.852 227.619 519.33 225.687 522.625 223.3 525.125 222.278 533.648 218.869 546.717 220.573 551.944 225.687 553.421 227.164 555.012 228.301 555.467 228.301 555.921 228.301 557.512 229.891 559.103 231.937 560.694 233.982 561.149 235.233 560.24 234.778 559.331 234.323 559.672 234.892 561.035 236.028 563.081 237.733 565.694 242.619 571.376 255.688 572.513 258.415 572.626 258.415 572.626 254.551 572.854 247.392 575.695 234.778 578.536 229.096 587.059 211.937 607.514 211.709 620.014 228.641 622.741 232.392 625.014 236.142 625.014 237.051 625.014 237.96 625.582 238.642 626.264 238.642 627.4 238.642 626.946 230.119 625.468 224.891 625.241 223.869 625.923 221.823 627.059 220.459 630.128 216.596 640.355 215.914 644.446 219.209 647.174 221.369 647.514 222.391 648.196 232.619 649.674 254.21 651.492 266.597 655.355 280.12 661.378 301.711 670.81 314.78 680.129 314.78 687.743 314.78 692.402 305.234 689.788 294.893 686.038 280.12 676.833 269.665 665.583 267.62 663.31 267.165 660.697 265.915 659.787 264.892 658.196 263.074 658.424 262.392 662.287 257.165 668.31 248.983 682.174 228.641 683.879 225.346 687.174 219.437 706.152 201.595 712.63 198.414 726.493 191.709 740.13 190.345 752.63 194.436 763.54 197.959 773.654 208.073 770.358 212.05 768.426 214.323 766.722 213.982 763.881 210.8 756.494 202.277 744.107 201.254 730.13 207.959 724.107 210.8 719.789 214.209 712.516 221.482 707.175 226.823 701.947 232.505 700.925 234.096 699.902 235.687 694.902 242.505 689.902 249.324 684.788 256.256 680.697 262.051 680.811 262.392 680.811 262.847 683.765 264.438 687.402 266.142 695.584 270.006 704.448 278.415 707.857 285.575 710.698 291.484 712.175 302.848 710.925 309.552 710.016 314.212 705.129 320.348 699.675 323.757 695.243 326.485 687.402 327.394 680.811 326.144Z" fill="#86709E" transform="matrix(1 0 0 -1.0004 50.685 625.686)"/><path d="M769.108 325.007C757.062 321.939 741.38 309.893 734.903 298.757 731.721 293.188 726.948 281.484 725.13 274.438 723.198 267.165 723.539 246.369 725.812 240.687 730.471 228.641 736.607 222.732 746.948 220.687 762.631 217.505 776.495 227.732 784.677 248.187 787.972 256.597 789.79 258.869 789.79 254.892 789.904 248.187 792.404 235.46 794.336 230.914 797.404 224.096 800.586 220.687 806.268 218.073 817.518 212.846 828.996 217.505 838.996 231.255 840.701 233.642 842.064 236.369 842.064 237.164 842.064 238.073 843.314 240.914 844.792 243.528 848.428 249.778 854.451 268.529 854.792 275.006 855.133 279.779 854.905 280.12 852.178 280.461 849.451 280.802 849.11 280.347 848.314 276.483 847.86 274.097 847.178 271.711 846.723 271.029 846.155 270.461 845.132 267.392 844.451 264.21 840.701 249.21 831.041 232.164 824.337 228.982 819.223 226.596 817.745 227.164 814.791 232.96 811.382 239.664 810.018 252.506 811.382 266.256 812.518 277.165 813.2 281.711 817.632 307.848 819.45 318.189 819.45 318.643 817.405 321.484 813.654 326.371 805.359 327.053 798.881 322.848 796.154 321.144 790.586 320.234 791.495 321.712 793.199 324.439 776.608 326.825 769.108 325.007ZM788.54 312.734C790.699 311.711 792.745 309.78 793.199 308.53 793.995 306.37 789.449 285.802 785.927 275.688 785.017 273.074 783.654 268.756 782.858 265.915 782.063 263.074 781.04 260.347 780.699 259.665 780.245 259.097 779.222 256.597 778.54 254.21 776.495 248.074 768.767 236.937 765.358 235.46 760.358 233.187 754.79 233.755 751.835 236.823 742.289 247.165 746.835 284.552 759.79 302.393 767.858 313.416 779.222 317.507 788.54 312.734Z" fill="#86709E" transform="matrix(1 0 0 -1.0004 50.685 625.686)"/></g></svg>