<svg width="698" height="537" xmlns="http://www.w3.org/2000/svg" xmlns:xlink="http://www.w3.org/1999/xlink" xml:space="preserve" overflow="hidden"><g transform="translate(-228 -78)"><path d="M650.182 592.166C648.909 591.984 646.544 590.802 644.817 589.529 642.452 587.71 642.089 586.982 642.998 586.346 643.907 585.709 643.725 585.618 642.361 585.982 640.906 586.437 639.27 585.346 635.269 581.072 632.45 578.071 630.267 575.252 630.631 574.706 630.904 574.252 630.631 573.979 629.994 574.252 628.63 574.706 624.266 569.068 619.082 560.248 615.536 554.064 614.899 552.336 616.718 553.427 617.354 553.882 617.445 553.7 617.082 552.973 616.627 552.336 616.081 552.063 615.809 552.336 615.172 553.064 611.626 545.698 610.171 540.606 609.352 537.605 609.352 535.968 610.171 533.422 611.535 529.148 612.626 528.602 614.717 531.33 616.627 533.695 622.356 536.423 626.994 537.15 628.539 537.332 632.086 538.06 635.087 538.787 643.816 540.697 661.821 540.333 672.461 537.969 682.555 535.695 684.919 534.695 688.556 531.33L690.92 529.057 692.375 531.785C694.194 535.241 694.194 538.423 692.557 542.424 691.83 544.152 691.375 545.607 691.648 545.607 691.83 545.607 690.557 548.517 688.738 552.154 686.283 557.065 685.283 558.338 684.555 557.338 683.919 556.428 683.828 556.61 684.282 558.065 684.737 559.611 683.555 561.884 679.281 567.613 676.28 571.796 673.097 575.161 672.188 575.252 667.187 575.525 667.005 575.616 668.369 576.525 669.187 577.07 669.915 576.98 670.369 576.252 670.733 575.706 671.37 575.525 671.733 575.979 672.734 576.98 660.185 588.801 655.911 590.802 654.001 591.711 651.455 592.347 650.182 592.166ZM668.823 578.525C668.187 577.798 665.641 579.162 665.641 580.162 665.641 580.708 666.277 580.708 667.459 579.98 668.369 579.344 669.005 578.707 668.823 578.525ZM663.822 575.616C663.822 575.161 663.64 574.706 663.458 574.706 663.185 574.706 662.731 575.161 662.458 575.616 662.185 576.161 662.367 576.525 662.822 576.525 663.367 576.525 663.822 576.161 663.822 575.616ZM643.18 541.333C642.543 541.151 641.27 541.151 640.452 541.333 639.542 541.606 640.088 541.788 641.543 541.788 643.089 541.788 643.725 541.606 643.18 541.333ZM663.64 541.333C662.731 541.151 661.094 541.151 660.003 541.333 658.821 541.515 659.548 541.697 661.549 541.697 663.549 541.788 664.459 541.606 663.64 541.333ZM691.83 534.24C691.557 533.968 691.011 534.422 690.739 535.332 690.193 536.605 690.284 536.696 691.193 535.877 691.83 535.241 692.103 534.513 691.83 534.24Z" fill="#86709E" transform="matrix(1 0 0 -1.00014 -41.5026 735.754)"/><path d="M726.84 538.423C723.02 536.059 713.472 526.238 709.926 521.055 708.38 518.781 706.925 516.781 706.652 516.508 705.015 515.144 703.015 508.779 703.379 506.687 703.742 504.687 703.742 504.596 703.015 506.051 701.378 509.779 698.195 498.503 699.832 494.411 700.287 493.229 701.105 493.411 705.197 495.229 711.108 497.957 717.201 498.776 731.568 498.776 743.935 498.776 753.665 497.776 755.393 496.321 756.03 495.775 756.575 495.684 756.575 495.957 756.575 496.321 757.848 495.775 759.303 494.684 761.758 492.956 762.122 492.865 762.577 494.229 764.032 497.867 760.394 509.597 755.666 516.599 752.847 520.782 747.846 526.875 748.846 524.965 749.21 524.147 748.937 523.965 747.936 524.419 746.754 524.783 746.663 525.056 747.573 525.692 748.937 526.511 746.3 529.694 739.207 535.695 733.933 540.151 730.75 540.788 726.84 538.423ZM752.029 519.691C752.665 518.872 752.756 518.327 752.21 518.327 751.756 518.327 751.119 518.963 750.755 519.691 750.483 520.418 750.392 521.055 750.574 521.055 750.755 521.055 751.392 520.418 752.029 519.691ZM760.849 499.958C760.576 499.321 760.394 499.776 760.394 501.049 760.394 502.322 760.576 502.777 760.849 502.231 761.031 501.595 761.031 500.504 760.849 499.958Z" fill="#86709E" transform="matrix(1 0 0 -1.00014 -41.5026 735.754)"/><path d="M568.795 532.422C562.157 529.512 543.698 506.869 545.062 503.323 545.334 502.504 545.243 502.049 544.789 502.322 544.334 502.595 543.516 501.595 542.97 500.14 542.424 498.594 541.515 496.23 540.969 494.775 539.06 489.591 541.06 484.772 543.879 487.682 548.062 491.683 574.252 494.047 587.437 491.592 591.711 490.774 596.712 489.319 598.531 488.318 601.987 486.591 601.987 486.591 602.987 488.409 604.351 490.955 602.896 496.593 598.804 504.505 594.803 512.325 584.072 525.874 582.708 525.056 582.163 524.692 581.981 524.783 582.345 525.42 582.981 526.511 573.251 534.149 571.796 533.695 571.614 533.695 570.25 533.058 568.795 532.422ZM559.247 520.145C559.247 519.691 558.884 519.236 558.338 519.236 557.883 519.236 557.429 519.691 557.429 520.145 557.429 520.691 557.883 521.055 558.338 521.055 558.884 521.055 559.247 520.691 559.247 520.145ZM557.883 516.599C557.338 516.144 555.61 517.508 555.61 518.418 555.61 518.872 556.156 518.781 556.883 518.145 557.61 517.508 557.974 516.781 557.883 516.599ZM543.97 498.139C543.334 497.503 542.879 497.412 542.879 497.957 542.879 499.231 543.97 500.322 544.607 499.685 544.789 499.412 544.516 498.685 543.97 498.139ZM544.789 495.32C543.879 494.502 543.788 494.593 544.334 495.866 544.607 496.775 545.152 497.23 545.425 496.957 545.698 496.684 545.425 495.957 544.789 495.32ZM558.065 493.229C557.792 492.956 556.974 492.865 556.337 493.138 555.61 493.411 555.883 493.684 556.883 493.684 557.883 493.774 558.429 493.502 558.065 493.229ZM553.518 492.32C553.246 492.047 552.427 491.956 551.791 492.229 551.063 492.501 551.336 492.774 552.336 492.774 553.337 492.865 553.882 492.592 553.518 492.32Z" fill="#86709E" transform="matrix(1 0 0 -1.00014 -41.5026 735.754)"/><path d="M638.542 532.876C637.36 532.331 635.996 532.149 635.541 532.422 633.905 533.513 622.083 529.421 619.628 526.966 618.809 526.238 618.446 518.6 618.355 500.049L618.264 474.133 621.537 474.496C623.265 474.678 624.993 475.224 625.266 475.678 625.539 476.133 626.266 476.497 626.812 476.497 627.448 476.497 627.357 476.133 626.539 475.497 625.448 474.769 625.539 474.678 626.994 475.042 633.814 476.77 648.636 477.497 660.548 476.497 676.189 475.224 677.098 475.133 681.372 473.951L684.737 473.041 684.737 499.321C684.737 517.236 684.464 525.602 683.737 525.602 683.282 525.602 683.009 525.965 683.282 526.329 684.191 527.784 676.462 531.24 669.915 532.331 661.821 533.695 641.361 534.058 638.542 532.876ZM652.91 518.236C652.91 517.69 653.456 517.417 654.183 517.69 655.456 518.236 658.366 515.599 660.003 512.325 660.548 511.325 661.094 505.96 661.185 500.504L661.367 490.592 652.001 490.592 642.634 490.592 642.725 501.231C642.816 509.233 643.18 512.416 644.271 514.053 645.908 516.599 649.818 518.6 651.273 517.781 651.91 517.417 652.001 517.599 651.637 518.145 651.273 518.781 651.455 519.236 651.91 519.236 652.455 519.236 652.91 518.781 652.91 518.236ZM657.729 488.591C657.093 488.409 656.002 488.409 655.456 488.591 654.82 488.864 655.274 489.046 656.547 489.046 657.82 489.046 658.275 488.864 657.729 488.591ZM683.373 476.497C683.1 476.042 681.918 475.588 680.827 475.678 679.008 475.769 679.008 475.86 681.1 476.497 682.373 476.861 683.464 477.224 683.646 477.315 683.828 477.406 683.646 477.043 683.373 476.497Z" fill="#86709E" transform="matrix(1 0 0 -1.00014 -41.5026 735.754)"/><path d="M716.564 491.956C714.291 491.683 710.926 490.683 709.107 489.864L705.652 488.409 705.652 476.952 705.652 465.494 708.38 463.22C709.835 461.947 711.926 459.037 712.927 456.764 714.563 452.945 714.745 450.581 714.745 421.482 714.836 395.292 714.563 389.745 713.381 386.926 712.654 385.017 712.017 383.471 712.017 383.289 712.017 383.198 716.655 383.016 722.293 382.925 739.843 382.562 750.21 386.654 754.847 395.747 756.484 398.93 756.575 401.658 756.575 443.942L756.575 488.773 751.847 490.501C746.118 492.592 727.658 493.774 728.749 492.047 729.113 491.501 728.931 491.046 728.476 491.046 727.931 491.046 727.476 491.501 727.476 491.956 727.476 492.956 722.929 492.956 716.564 491.956ZM738.661 474.587C740.025 473.587 741.48 471.223 741.935 469.404 742.935 465.676 743.481 449.489 742.662 448.671 742.389 448.307 737.934 448.398 732.841 448.762L723.657 449.398 724.021 459.674C724.384 468.495 724.657 470.222 726.476 472.496 728.385 474.86 730.932 476.133 734.842 476.406 735.66 476.406 737.388 475.678 738.661 474.587ZM712.745 461.493C712.472 461.22 711.926 461.675 711.654 462.584 711.108 463.857 711.199 463.948 712.108 463.13 712.745 462.493 713.018 461.766 712.745 461.493ZM716.291 451.763C716.018 451.035 715.746 451.308 715.746 452.308 715.655 453.309 715.927 453.854 716.2 453.49 716.473 453.218 716.564 452.399 716.291 451.763ZM740.48 446.761C739.298 446.579 737.479 446.579 736.388 446.761 735.206 446.943 736.115 447.125 738.388 447.125 740.662 447.125 741.571 446.943 740.48 446.761ZM740.48 444.943C739.298 444.761 737.479 444.761 736.388 444.943 735.206 445.124 736.115 445.306 738.388 445.306 740.662 445.306 741.571 445.124 740.48 444.943Z" fill="#86709E" transform="matrix(1 0 0 -1.00014 -41.5026 735.754)"/><path d="M570.069 486.045C569.796 485.863 566.977 485.59 563.794 485.499 557.61 485.408 549.881 483.59 547.79 481.862 546.698 481.044 546.516 473.496 546.516 439.759 546.607 399.293 546.607 398.657 548.608 394.656 550.518 390.655 556.337 385.835 559.884 385.199 560.793 385.017 563.339 384.38 565.613 383.744 567.886 383.107 573.16 382.562 577.434 382.471 586.71 382.38 590.347 383.835 594.257 389.473L596.985 393.292 596.985 437.395 596.985 481.498 592.62 483.59C589.256 485.136 586.164 485.772 579.344 486.045 574.433 486.318 570.25 486.318 570.069 486.045ZM567.159 484.135C566.886 483.863 566.067 483.772 565.431 484.044 564.703 484.317 564.976 484.59 565.976 484.59 566.977 484.681 567.522 484.408 567.159 484.135ZM574.07 484.044C573.433 483.863 572.342 483.863 571.796 484.044 571.16 484.317 571.614 484.499 572.888 484.499 574.161 484.499 574.615 484.317 574.07 484.044ZM574.706 467.312C579.344 465.676 580.708 461.584 580.344 450.126L580.071 440.578 571.251 440.669 562.43 440.76 562.43 452.217C562.43 463.402 562.521 463.766 564.703 465.312 569.068 468.495 570.432 468.767 574.706 467.312Z" fill="#86709E" transform="matrix(1 0 0 -1.00014 -41.5026 735.754)"/><path d="M634.723 470.041C624.811 468.586 617.809 466.949 613.808 465.312 612.535 464.766 610.989 464.221 610.262 464.13 607.443 463.584 603.896 461.675 604.351 460.947 604.624 460.492 604.351 460.129 603.896 460.129 603.169 460.129 602.896 449.307 602.896 425.846L602.896 391.473 600.532 387.381C598.349 383.653 598.349 383.289 599.804 382.198 601.259 381.107 609.443 378.469 613.353 377.742 621.537 376.196 630.358 375.105 630.722 375.469 630.904 375.741 631.086 383.198 631.086 392.11 630.995 400.93 631.086 408.569 631.358 408.933 631.54 409.296 631.995 411.115 632.359 412.843 633.177 417.662 636.087 421.663 640.816 424.664 644.453 427.029 645.999 427.392 651.273 427.392 657.911 427.392 662.731 425.664 666.004 422.027 666.914 421.027 668.096 420.39 668.642 420.754 669.187 421.027 669.278 420.845 668.914 420.299 668.642 419.754 669.187 417.662 670.278 415.662 672.097 412.206 672.188 410.66 672.097 393.837 672.006 382.471 672.279 375.469 672.825 375.105 674.189 374.377 688.738 377.105 695.194 379.379 698.195 380.379 701.742 382.016 703.197 383.016 708.198 386.563 708.471 388.563 708.38 421.3 708.289 437.759 708.016 451.854 707.743 452.49 707.471 453.218 706.925 453.49 706.47 453.218 706.016 452.945 705.925 453.4 706.198 454.127 706.47 454.945 705.925 455.855 704.743 456.491 703.742 457.037 703.106 457.855 703.379 458.31 703.924 459.128 692.557 464.857 687.92 466.039 686.465 466.403 682.827 466.858 679.917 466.949 677.008 467.131 674.37 467.494 674.007 467.858 673.643 468.222 674.643 468.313 676.098 467.949 678.372 467.494 678.553 467.585 677.098 468.404 676.189 468.949 674.007 469.222 672.097 468.858 670.278 468.586 669.369 468.677 670.006 469.131 672.915 470.859 645.362 471.677 634.723 470.041ZM610.171 461.947C609.443 461.493 608.17 461.038 607.443 461.038 606.26 461.038 606.26 461.129 607.443 461.947 608.17 462.402 609.443 462.857 610.171 462.857 611.353 462.857 611.353 462.766 610.171 461.947Z" fill="#86709E" transform="matrix(1 0 0 -1.00014 -41.5026 735.754)"/><path d="M511.961 460.22C509.051 459.492 502.049 455.764 500.322 454.036 499.594 453.309 498.048 452.126 496.866 451.308 494.502 449.762 485.863 438.668 483.226 433.758 482.226 432.03 481.225 430.393 480.953 430.12 478.043 427.847 462.129 389.382 449.671 354.645 439.214 325.182 437.941 322.181 436.486 322.636 431.757 324 415.207 332.911 411.206 336.276 405.932 340.732 399.112 349.734 397.475 354.645 395.474 360.464 395.201 370.922 396.838 377.196 399.203 386.472 406.477 395.656 412.843 397.384 421.845 399.93 430.575 397.566 434.576 391.564 436.304 388.836 436.668 387.472 436.395 382.652 436.031 377.469 436.213 376.924 437.85 376.651 441.487 376.196 442.396 377.833 442.396 384.835 442.306 390.564 441.942 392.11 439.668 395.656 432.848 406.659 416.844 409.569 403.931 402.203 395.292 397.293 391.018 392.019 386.835 381.288 384.835 376.196 384.38 373.559 384.289 366.466 384.289 356.554 385.653 351.098 390.655 342.005 398.02 328.637 408.933 320.18 430.484 311.087 433.576 309.814 433.758 310.541 426.119 293.719 411.024 260.618 397.566 242.431 384.198 236.794 380.106 235.157 368.558 235.157 364.375 236.884 356.372 240.158 351.917 246.887 351.189 256.526 350.644 264.619 352.735 271.44 357.645 277.532 364.829 286.535 376.014 289.626 386.381 285.534 390.837 283.807 390.928 283.807 393.11 285.534 396.475 288.172 396.929 291.536 394.474 295.173 387.381 305.449 365.011 302.63 351.917 289.808 341.277 279.442 336.731 263.437 340.459 249.524 342.823 240.613 351.826 230.61 360.737 227.064 370.831 223.062 387.017 224.245 395.656 229.701 397.566 230.883 399.384 231.883 399.657 231.883 399.93 231.883 403.113 234.247 406.659 237.066 418.572 246.705 430.12 264.801 443.124 294.173 444.943 298.174 446.67 302.63 447.034 303.994 447.489 306.086 448.034 306.449 449.58 306.086 460.129 303.539 491.41 302.448 495.411 304.54 496.957 305.358 497.23 304.722 498.685 295.264 503.504 264.71 515.872 235.702 529.694 222.426 537.696 214.787 548.335 211.423 559.247 213.06 568.795 214.424 576.525 220.062 575.252 224.881 574.433 228.155 572.342 228.518 568.523 225.972 564.431 223.153 560.248 223.062 554.973 225.609 542.333 231.701 530.694 258.254 524.692 294.173 523.601 300.72 522.51 306.722 522.328 307.541 521.964 308.632 523.055 309.541 526.238 310.996 537.605 315.997 546.335 324.909 547.244 332.366 547.88 338.549 546.789 342.278 543.243 345.915 539.06 350.189 536.332 351.28 533.331 349.916 532.058 349.37 531.058 348.643 531.058 348.279 531.058 348.006 532.694 346.188 534.695 344.278 538.514 340.641 539.787 337.822 538.787 334.73 537.878 331.729 530.694 324.909 525.783 322.454 521.6 320.362 521.146 320.271 520.691 321.726 519.236 327.001 518.145 357.373 518.6 379.47 519.236 406.477 520.691 422.3 524.238 440.941 526.238 450.944 526.42 453.581 525.511 455.673 523.783 460.038 518.327 461.856 511.961 460.22ZM495.502 417.662C490.774 394.201 489.864 360.283 493.32 330.547 494.047 324.091 494.684 317.998 494.684 317.18 494.684 315.725 493.684 315.543 486.318 315.543 477.679 315.634 461.675 316.816 456.037 317.907 452.217 318.635 452.126 319.635 455.127 325.546 456.4 328.001 459.037 334.821 460.947 340.732 462.948 346.642 466.676 357.373 469.222 364.647 471.859 371.922 474.678 380.106 475.588 382.925 481.044 399.384 495.138 430.12 497.321 430.12 497.685 430.12 496.866 424.482 495.502 417.662Z" fill="#86709E" transform="matrix(1 0 0 -1.00014 -41.5026 735.754)"/><path d="M700.469 358.1C698.923 357.555 696.286 355.827 694.649 354.099L691.739 351.098 692.83 341.914C694.831 324.273 693.467 301.448 689.829 288.808 685.373 273.531 679.281 261.255 673.279 255.071 669.551 251.343 668.823 250.979 664.913 250.979 659.457 250.979 658.73 251.525 657.002 256.435 654.365 263.892 653.456 277.168 654.638 290.354 656.093 306.722 659.093 330.001 660.73 338.185 662.549 347.006 662.549 351.189 660.639 354.008 658.093 357.918 651.455 359.282 644.817 357.373 641.179 356.372 636.542 351.462 636.542 348.643 636.542 346.279 632.904 329.092 629.631 315.997 625.448 299.266 620.901 286.08 615.9 275.895 608.716 261.346 604.624 257.345 596.985 257.345 591.893 257.345 589.619 258.709 587.346 263.437 585.346 267.529 585.164 268.802 585.164 282.806 585.255 297.083 585.436 298.902 589.983 322.09 592.62 335.367 594.712 347.552 594.712 349.007 594.712 355.008 586.891 359.282 578.253 357.827 574.979 357.282 569.341 353.008 569.25 351.098 569.068 348.734 567.068 335.73 564.34 319.635 562.612 309.177 560.793 296.628 560.248 291.9 557.065 259.163 571.614 238.158 594.348 242.795 602.259 244.432 606.351 246.796 612.626 253.344 618.264 259.345 622.811 266.984 626.63 277.168 627.812 280.26 629.085 282.806 629.358 282.806 629.722 282.806 630.267 279.624 630.54 275.804 631.267 267.166 632.813 259.345 634.086 256.89 634.632 255.89 635.178 254.889 635.178 254.617 635.269 254.344 636.178 252.525 637.178 250.434 639.542 246.069 644.635 241.34 649.182 239.34 654.274 237.157 663.458 237.43 668.642 239.976 674.37 242.704 681.736 250.161 685.737 256.981 689.375 263.255 689.92 262.255 688.465 251.707 687.465 244.25 688.374 241.613 692.557 240.067 695.467 238.885 703.924 238.885 706.743 239.976 711.563 241.886 712.927 244.25 712.927 250.888 712.927 254.344 713.745 265.438 714.745 275.623 716.291 290.99 717.201 296.174 720.201 306.449 728.113 333.366 737.388 346.461 748.391 346.461 753.029 346.461 755.393 344.642 757.576 339.822 759.212 335.821 759.394 334.184 758.94 328.728 758.576 325.273 758.212 321.635 758.121 320.817 758.03 319.908 757.666 319.18 757.303 319.18 756.939 319.18 756.575 318.635 756.575 318.089 756.575 315.27 751.756 306.995 748.027 303.267 743.299 298.629 738.661 296.083 732.387 294.537 727.567 293.446 723.839 291.445 723.839 290.172 723.839 289.717 726.385 285.807 729.568 281.442 737.388 270.53 737.934 269.803 746.027 257.617 764.123 230.519 776.945 219.334 797.132 213.151 803.77 211.15 817.956 210.877 824.321 212.696 830.96 214.605 838.325 218.607 842.599 222.608 848.965 228.518 850.056 232.52 846.146 234.611 844.054 235.793 843.69 235.611 840.417 232.065 833.142 224.154 820.957 221.971 808.953 226.336 796.132 230.974 781.4 243.25 770.397 258.618 767.578 262.619 764.123 267.075 762.85 268.621 761.577 270.166 758.03 275.259 754.938 279.896 749.846 287.717 748.937 290.081 751.119 290.081 752.483 290.081 765.123 298.265 768.397 301.266 774.217 306.54 780.036 315.725 781.673 321.999 783.583 329.456 783.037 340.095 780.4 345.187 778.672 348.552 771.125 356.463 771.125 354.917 771.125 354.554 770.761 354.645 770.397 355.19 768.033 358.919 753.756 360.464 745.39 357.918 736.297 355.19 727.021 346.461 720.929 334.73 719.11 331.274 717.382 328.637 717.11 328.91 716.837 329.274 716.564 334.639 716.564 340.914 716.564 350.553 716.291 352.826 714.836 355.19 712.472 359.009 707.016 360.192 700.469 358.1ZM658.366 354.645C658.366 354.19 658.184 353.735 658.002 353.735 657.729 353.735 657.275 354.19 657.002 354.645 656.729 355.19 656.911 355.554 657.366 355.554 657.911 355.554 658.366 355.19 658.366 354.645Z" fill="#86709E" transform="matrix(1 0 0 -1.00014 -41.5026 735.754)"/><path d="M845.327 357.282C840.508 356.1 830.141 350.734 824.412 346.461 815.41 339.822 807.317 328.546 802.224 315.27 797.223 302.539 796.223 297.083 796.223 282.806 796.314 272.713 796.586 269.621 798.132 265.438 800.769 258.163 805.953 250.525 810.318 247.433 818.593 241.34 831.142 240.522 840.69 245.25 850.056 250.07 860.059 263.255 865.242 277.805 867.152 282.897 868.425 284.898 868.425 282.534 868.425 277.532 870.516 262.619 871.789 258.709 873.699 252.616 878.882 244.978 883.156 241.795 890.249 236.703 901.434 236.612 909.8 241.431 919.712 247.251 928.987 262.528 936.08 284.534 941.172 300.357 942.173 307.086 939.899 308.814 938.717 309.632 937.717 309.723 936.262 309.086 934.625 308.268 933.352 305.358 929.896 293.9 924.531 276.441 917.347 261.073 911.619 255.253 907.981 251.434 907.072 250.979 903.525 250.979 898.706 250.979 896.796 253.071 894.432 260.982 890.704 273.258 891.522 290.263 897.615 326.455 899.524 338.185 901.161 348.916 901.161 350.189 901.161 351.735 900.161 353.372 898.342 354.917 892.977 359.373 883.247 359.191 877.973 354.554L874.972 351.917 870.243 354.827C865.969 357.464 864.787 357.736 857.24 358.009 852.602 358.1 847.237 357.827 845.327 357.282ZM865.879 345.097C868.879 344.005 870.425 342.823 871.607 340.641 873.244 337.64 873.244 337.367 870.698 326.819 866.333 307.904 859.422 286.353 854.512 275.532 851.602 269.257 846.146 262.164 842.145 259.436 835.87 255.253 827.686 257.436 824.776 263.983 819.411 276.259 820.957 299.447 828.323 318.453 831.869 327.455 834.779 332.093 841.144 338.458 848.601 345.915 856.876 348.097 865.879 345.097Z" fill="#86709E" transform="matrix(1 0 0 -1.00014 -41.5026 735.754)"/></g></svg>